<svg width="13" height="16" viewBox="0 0 13 16" fill="none" xmlns="http://www.w3.org/2000/svg">
<path d="M1.6 16C1.16 16 0.783333 15.8433 0.47 15.53C0.156667 15.2167 0 14.84 0 14.4V4.8C0 4.36 0.156667 3.98333 0.47 3.67C0.783333 3.35667 1.16 3.2 1.6 3.2H3.2C3.2 2.32 3.51333 1.56667 4.14 0.94C4.76667 0.313333 5.52 0 6.4 0C7.28 0 8.03333 0.313333 8.66 0.94C9.28667 1.56667 9.6 2.32 9.6 3.2H11.2C11.64 3.2 12.0167 3.35667 12.33 3.67C12.6433 3.98333 12.8 4.36 12.8 4.8V14.4C12.8 14.84 12.6433 15.2167 12.33 15.53C12.0167 15.8433 11.64 16 11.2 16H1.6ZM1.6 14.4H11.2V4.8H9.6V6.4C9.6 6.62667 9.52333 6.81667 9.37 6.97C9.21667 7.12333 9.02667 7.2 8.8 7.2C8.57333 7.2 8.38333 7.12333 8.23 6.97C8.07667 6.81667 8 6.62667 8 6.4V4.8H4.8V6.4C4.8 6.62667 4.72333 6.81667 4.57 6.97C4.41667 7.12333 4.22667 7.2 4 7.2C3.77333 7.2 3.58333 7.12333 3.43 6.97C3.27667 6.81667 3.2 6.62667 3.2 6.4V4.8H1.6V14.4ZM4.8 3.2H8C8 2.76 7.84333 2.38333 7.53 2.07C7.21667 1.75667 6.84 1.6 6.4 1.6C5.96 1.6 5.58333 1.75667 5.27 2.07C4.95667 2.38333 4.8 2.76 4.8 3.2Z" fill="#5F6368"/>
</svg>
