<svg width="16" height="16" viewBox="0 0 16 16" fill="none" xmlns="http://www.w3.org/2000/svg">
<path d="M4.8 7.2C5.02667 7.2 5.21667 7.12333 5.37 6.97C5.52333 6.81667 5.6 6.62667 5.6 6.4C5.6 6.17333 5.52333 5.98333 5.37 5.83C5.21667 5.67667 5.02667 5.6 4.8 5.6C4.57333 5.6 4.38333 5.67667 4.23 5.83C4.07667 5.98333 4 6.17333 4 6.4C4 6.62667 4.07667 6.81667 4.23 6.97C4.38333 7.12333 4.57333 7.2 4.8 7.2ZM8 7.2C8.22667 7.2 8.41667 7.12333 8.57 6.97C8.72333 6.81667 8.8 6.62667 8.8 6.4C8.8 6.17333 8.72333 5.98333 8.57 5.83C8.41667 5.67667 8.22667 5.6 8 5.6C7.77333 5.6 7.58333 5.67667 7.43 5.83C7.27667 5.98333 7.2 6.17333 7.2 6.4C7.2 6.62667 7.27667 6.81667 7.43 6.97C7.58333 7.12333 7.77333 7.2 8 7.2ZM11.2 7.2C11.4267 7.2 11.6167 7.12333 11.77 6.97C11.9233 6.81667 12 6.62667 12 6.4C12 6.17333 11.9233 5.98333 11.77 5.83C11.6167 5.67667 11.4267 5.6 11.2 5.6C10.9733 5.6 10.7833 5.67667 10.63 5.83C10.4767 5.98333 10.4 6.17333 10.4 6.4C10.4 6.62667 10.4767 6.81667 10.63 6.97C10.7833 7.12333 10.9733 7.2 11.2 7.2ZM0 16V1.6C0 1.16 0.156667 0.783333 0.47 0.47C0.783333 0.156667 1.16 0 1.6 0H14.4C14.84 0 15.2167 0.156667 15.53 0.47C15.8433 0.783333 16 1.16 16 1.6V11.2C16 11.64 15.8433 12.0167 15.53 12.33C15.2167 12.6433 14.84 12.8 14.4 12.8H3.2L0 16ZM2.52 11.2H14.4V1.6H1.6V12.1L2.52 11.2Z" fill="url(#paint0_linear_4220_19)"/>
<defs>
<linearGradient id="paint0_linear_4220_19" x1="8" y1="0" x2="8" y2="16" gradientUnits="userSpaceOnUse">
<stop stop-color="#8225AF"/>
<stop offset="1" stop-color="#0F52BA"/>
</linearGradient>
</defs>
</svg>
