<svg width="85" height="20" viewBox="0 0 85 20" fill="none" xmlns="http://www.w3.org/2000/svg">
<path d="M65.6519 4.36719C66.3829 4.36719 67.0208 4.51619 67.566 4.81348C68.1236 5.11086 68.5518 5.50112 68.8492 5.98438V4.51562H72.0269V14.8691C72.0269 15.8231 71.8348 16.684 71.4507 17.4521C71.079 18.2328 70.5028 18.8521 69.7222 19.3105C68.954 19.769 67.9937 19.999 66.8414 19.999C65.3052 19.999 64.0601 19.6332 63.106 18.9023C62.152 18.1838 61.6067 17.2047 61.4703 15.9658H64.6109C64.7101 16.362 64.9456 16.6716 65.317 16.8945C65.6887 17.13 66.1477 17.248 66.6929 17.248C67.3496 17.248 67.8704 17.056 68.2545 16.6719C68.6508 16.3002 68.8491 15.6991 68.8492 14.8691V13.4004C68.5394 13.8836 68.1112 14.2801 67.566 14.5898C67.0208 14.8871 66.3829 15.0361 65.6519 15.0361C64.797 15.0361 64.0225 14.8194 63.3287 14.3857C62.6348 13.9397 62.0833 13.3132 61.6744 12.5078C61.278 11.6901 61.0797 10.7481 61.0797 9.68262C61.0797 8.61735 61.278 7.68217 61.6744 6.87695C62.0833 6.07153 62.6348 5.45126 63.3287 5.01758C64.0225 4.58397 64.797 4.36719 65.6519 4.36719ZM79.0845 4.36719C80.1006 4.36719 81.0177 4.58393 81.8355 5.01758C82.6533 5.45126 83.2973 6.0777 83.7681 6.89551C84.2389 7.7009 84.4752 8.63658 84.4752 9.70215C84.4751 10.7675 84.2327 11.7087 83.7496 12.5264C83.2787 13.3318 82.6286 13.9521 81.7984 14.3857C80.9806 14.8194 80.0635 15.0361 79.0474 15.0361C78.0314 15.0361 77.1142 14.8194 76.2964 14.3857C75.4911 13.9521 74.8532 13.3318 74.3824 12.5264C73.9241 11.7211 73.695 10.7798 73.6949 9.70215C73.6949 8.63663 73.9302 7.70087 74.4009 6.89551C74.8718 6.07773 75.5158 5.45126 76.3336 5.01758C77.1513 4.58391 78.0685 4.36721 79.0845 4.36719ZM79.0845 7.11816C78.465 7.1182 77.9504 7.34106 77.5416 7.78711C77.1327 8.22079 76.9283 8.85964 76.9283 9.70215C76.9284 10.532 77.1266 11.1702 77.523 11.6162C77.9319 12.0623 78.4403 12.2851 79.0474 12.2852C79.6546 12.2852 80.1691 12.0623 80.5904 11.6162C81.024 11.1702 81.2407 10.5321 81.2408 9.70215C81.2408 8.87195 81.0302 8.23319 80.6089 7.78711C80.2 7.34103 79.6917 7.11816 79.0845 7.11816ZM66.5816 7.13672C65.9498 7.13672 65.4105 7.36589 64.9644 7.82422C64.5308 8.27021 64.3141 8.88982 64.314 9.68262C64.314 10.4756 64.5307 11.1082 64.9644 11.5791C65.4105 12.0375 65.9497 12.2666 66.5816 12.2666C67.2133 12.2665 67.7457 12.0373 68.1793 11.5791C68.6253 11.1207 68.8491 10.495 68.8492 9.70215C68.8492 8.90912 68.6253 8.28269 68.1793 7.82422C67.7457 7.36606 67.2132 7.1368 66.5816 7.13672Z" fill="#9317CF"/>
<path d="M24.2471 4.36816C25.2507 4.36816 26.1432 4.5787 26.9238 5C27.7043 5.42124 28.3115 6.02227 28.7451 6.80273C29.1912 7.58331 29.414 8.4944 29.4141 9.53516C29.4141 9.83254 29.3956 10.1427 29.3584 10.4648H22.165C22.2146 11.1088 22.4193 11.6043 22.7783 11.9512C23.1501 12.2857 23.6029 12.4531 24.1357 12.4531C24.9286 12.4531 25.4803 12.1191 25.79 11.4502H29.1729C28.9994 12.1316 28.683 12.7449 28.2246 13.29C27.7785 13.8352 27.2147 14.2625 26.5332 14.5723C25.8517 14.882 25.0897 15.0371 24.2471 15.0371C23.231 15.0371 22.3262 14.8204 21.5332 14.3867C20.7402 13.953 20.1209 13.3327 19.6748 12.5273C19.2289 11.7221 19.0059 10.7808 19.0059 9.70312C19.0059 8.62525 19.2227 7.68328 19.6562 6.87793C20.1023 6.07253 20.7217 5.45224 21.5146 5.01855C22.3077 4.58487 23.2186 4.36817 24.2471 4.36816ZM53.9307 14.8867H50.752V13.4004C50.4546 13.8958 50.0271 14.2926 49.4697 14.5898C48.9246 14.8871 48.2865 15.0351 47.5557 15.0352C46.7007 15.0352 45.9263 14.8184 45.2324 14.3848C44.5386 13.9387 43.987 13.3132 43.5781 12.5078C43.1816 11.69 42.9834 10.7482 42.9834 9.68262C42.9834 8.61699 43.1816 7.6814 43.5781 6.87598C43.987 6.07062 44.5386 5.45124 45.2324 5.01758C45.9263 4.58395 46.7007 4.36719 47.5557 4.36719C48.237 4.36722 48.8566 4.50904 49.4141 4.79395C49.9839 5.07885 50.4298 5.46325 50.752 5.94629V1.13281H53.9307V14.8867ZM59.4082 14.8877H56.2305V4.5166H59.4082V14.8877ZM10.0928 4.38574H6.63574V14.8867H3.45703V4.38574H0V1.83887H10.0928V4.38574ZM18.1182 7.76855H17.2451C16.4521 7.76855 15.8575 7.94211 15.4609 8.28906C15.0644 8.62363 14.8662 9.21828 14.8662 10.0732V14.8867H11.6875V4.51562H14.8662V6.24414C15.2379 5.67431 15.7023 5.22837 16.2598 4.90625C16.8173 4.57176 17.4368 4.40436 18.1182 4.4043V7.76855ZM37.4102 4.4043C38.6244 4.4043 39.5909 4.8008 40.3096 5.59375C41.0406 6.37439 41.4062 7.45272 41.4062 8.82812V14.8867H38.2471V9.25488C38.247 8.56137 38.0671 8.02271 37.708 7.63867C37.3487 7.25455 36.865 7.06152 36.2578 7.06152C35.6507 7.06157 35.1679 7.25459 34.8086 7.63867C34.4494 8.02273 34.2696 8.5612 34.2695 9.25488V14.8867H31.0908V4.51562H34.2695V5.89062C34.5916 5.4324 35.0254 5.0736 35.5703 4.81348C36.1155 4.5409 36.7287 4.40433 37.4102 4.4043ZM48.4844 7.13672C47.8526 7.13681 47.3141 7.36589 46.8682 7.82422C46.4345 8.2703 46.2168 8.88959 46.2168 9.68262C46.2168 10.4756 46.4345 11.1073 46.8682 11.5781C47.3141 12.0365 47.8526 12.2665 48.4844 12.2666C49.1163 12.2666 49.6493 12.0366 50.083 11.5781C50.529 11.1197 50.752 10.4942 50.752 9.70117C50.752 8.90818 50.5291 8.28268 50.083 7.82422C49.6493 7.36575 49.1163 7.13672 48.4844 7.13672ZM24.21 6.91504C23.6774 6.91504 23.2252 7.06938 22.8535 7.37891C22.4942 7.68868 22.2703 8.12923 22.1836 8.69922H26.1611C26.1611 8.15401 25.9752 7.71963 25.6035 7.39746C25.2319 7.07557 24.7673 6.91504 24.21 6.91504ZM57.8281 0C58.3733 0 58.82 0.167395 59.167 0.501953C59.5262 0.824084 59.706 1.23299 59.7061 1.72852C59.7061 2.21166 59.5262 2.62056 59.167 2.95508C58.82 3.27725 58.3733 3.43848 57.8281 3.43848C57.2707 3.43841 56.8124 3.27718 56.4531 2.95508C56.1062 2.62053 55.9326 2.21174 55.9326 1.72852C55.9326 1.2329 56.1062 0.824109 56.4531 0.501953C56.8124 0.167465 57.2707 7.08552e-05 57.8281 0Z" fill="url(#paint0_linear_4034_39)"/>
<defs>
<linearGradient id="paint0_linear_4034_39" x1="60.9562" y1="13.8926" x2="0.217531" y2="2.60813" gradientUnits="userSpaceOnUse">
<stop/>
<stop offset="1" stop-color="#5F1582"/>
</linearGradient>
</defs>
</svg>
