<svg width="24" height="24" viewBox="0 0 24 24" fill="none" xmlns="http://www.w3.org/2000/svg">
<path d="M23.7666 9.6498H22.8V9.6H12V14.4H18.7818C17.7924 17.1942 15.1338 19.2 12 19.2C8.0238 19.2 4.8 15.9762 4.8 12C4.8 8.0238 8.0238 4.8 12 4.8C13.8354 4.8 15.5052 5.4924 16.7766 6.6234L20.1708 3.2292C18.0276 1.2318 15.1608 0 12 0C5.373 0 0 5.373 0 12C0 18.627 5.373 24 12 24C18.627 24 24 18.627 24 12C24 11.1954 23.9172 10.41 23.7666 9.6498Z" fill="#FFC107"/>
<path d="M1.38281 6.4146L5.32541 9.306C6.39221 6.6648 8.97581 4.8 11.9992 4.8C13.8346 4.8 15.5044 5.4924 16.7758 6.6234L20.17 3.2292C18.0268 1.2318 15.16 0 11.9992 0C7.39001 0 3.39281 2.6022 1.38281 6.4146Z" fill="#FF3D00"/>
<path d="M12.0001 23.9992C15.0997 23.9992 17.9161 22.813 20.0455 20.884L16.3315 17.7412C15.1267 18.6538 13.6291 19.1992 12.0001 19.1992C8.87894 19.1992 6.22874 17.209 5.23034 14.4316L1.31714 17.4466C3.30314 21.3328 7.33634 23.9992 12.0001 23.9992Z" fill="#4CAF50"/>
<path d="M23.7666 9.64941H22.8V9.59961H12V14.3996H18.7818C18.3066 15.7418 17.4432 16.8992 16.3296 17.7422L16.3314 17.741L20.0454 20.8838C19.7826 21.1226 24 17.9996 24 11.9996C24 11.195 23.9172 10.4096 23.7666 9.64941Z" fill="#1976D2"/>
</svg>
