<svg width="14" height="14" viewBox="0 0 14 14" fill="none" xmlns="http://www.w3.org/2000/svg">
<path d="M13.5805 14L9.59554 9.9037C9.0781 10.3717 8.47465 10.7263 7.78521 10.9677C7.09576 11.209 6.41456 11.3296 5.74159 11.3296C4.13688 11.3296 2.77877 10.7823 1.66726 9.68756C0.555755 8.59283 0 7.25332 0 5.66904C0 4.08474 0.553509 2.74383 1.66053 1.6463C2.76756 0.548765 4.12014 0 5.71826 0C7.31638 0 8.67673 0.547772 9.7993 1.64332C10.9219 2.73884 11.4832 4.07751 11.4832 5.65932C11.4832 6.36298 11.3521 7.05617 11.0899 7.73889C10.8278 8.42161 10.4695 9.00494 10.015 9.48889L14 13.5593L13.5805 14ZM5.74159 10.7593C7.19374 10.7593 8.41758 10.271 9.41312 9.29445C10.4086 8.3179 10.9064 7.10802 10.9064 5.66481C10.9064 4.2216 10.4086 3.01173 9.41312 2.03519C8.41758 1.05864 7.19374 0.57037 5.74159 0.57037C4.28945 0.57037 3.06561 1.05864 2.07007 2.03519C1.07454 3.01173 0.576781 4.2216 0.576781 5.66481C0.576781 7.10802 1.07454 8.3179 2.07007 9.29445C3.06561 10.271 4.28945 10.7593 5.74159 10.7593Z" fill="url(#paint0_linear_4034_38)"/>
<defs>
<linearGradient id="paint0_linear_4034_38" x1="4.55058" y1="-2" x2="9.50285" y2="16.0285" gradientUnits="userSpaceOnUse">
<stop stop-color="#0F52BA"/>
<stop offset="1" stop-color="#8225AF"/>
</linearGradient>
</defs>
</svg>
