<svg width="16" height="14" viewBox="0 0 16 14" fill="none" xmlns="http://www.w3.org/2000/svg">
<path d="M7.87315 14L7.21028 13.4012C5.78261 12.0969 4.60164 10.9804 3.66736 10.0518C2.73322 9.12309 1.99584 8.30406 1.45522 7.59475C0.914598 6.88544 0.536905 6.24363 0.322143 5.66933C0.107381 5.09517 0 4.51759 0 3.93658C0 2.82398 0.377984 1.88978 1.13395 1.13395C1.88978 0.377984 2.82398 0 3.93658 0C4.70596 0 5.42766 0.196829 6.10169 0.590487C6.77572 0.984144 7.36621 1.5567 7.87315 2.30815C8.3801 1.5567 8.97058 0.984144 9.64461 0.590487C10.3186 0.196829 11.0403 0 11.8097 0C12.9223 0 13.8565 0.377984 14.6124 1.13395C15.3683 1.88978 15.7463 2.82398 15.7463 3.93658C15.7463 4.51759 15.6389 5.09517 15.4242 5.66933C15.2094 6.24363 14.8317 6.88544 14.2911 7.59475C13.7505 8.30406 13.0159 9.12309 12.0873 10.0518C11.1587 10.9804 9.97492 12.0969 8.53603 13.4012L7.87315 14ZM7.87315 12.8157C9.27283 11.5506 10.4246 10.467 11.3286 9.56479C12.2325 8.66244 12.947 7.87957 13.4718 7.21618C13.9967 6.5528 14.3612 5.96515 14.5653 5.45325C14.7695 4.94121 14.8715 4.43565 14.8715 3.93658C14.8715 3.06178 14.5799 2.33279 13.9967 1.74959C13.4135 1.16639 12.6845 0.874795 11.8097 0.874795C11.1132 0.874795 10.4706 1.07359 9.8819 1.47119C9.29302 1.86878 8.76588 2.46736 8.30049 3.26692H7.44582C6.9692 2.45613 6.43929 1.85471 5.85609 1.46266C5.2729 1.07075 4.63306 0.874795 3.93658 0.874795C3.07301 0.874795 2.34678 1.16639 1.7579 1.74959C1.16916 2.33279 0.874795 3.06178 0.874795 3.93658C0.874795 4.43565 0.976854 4.94121 1.18097 5.45325C1.38509 5.96515 1.74959 6.5528 2.27447 7.21618C2.79934 7.87957 3.51376 8.65959 4.41771 9.55626C5.32167 10.4529 6.47348 11.5394 7.87315 12.8157Z" fill="url(#paint0_linear_4065_500)"/>
<defs>
<linearGradient id="paint0_linear_4065_500" x1="7.87315" y1="0" x2="7.87315" y2="14" gradientUnits="userSpaceOnUse">
<stop stop-color="#8225AF"/>
<stop offset="1" stop-color="#0F52BA"/>
</linearGradient>
</defs>
</svg>
