<svg width="73" height="73" viewBox="0 0 73 73" fill="none" xmlns="http://www.w3.org/2000/svg">
<rect width="73" height="73" rx="36.5" fill="#F2EFFF"/>
<path d="M28.6922 47.5832C28.1104 47.5832 27.6134 47.3772 27.2012 46.9651C26.7892 46.5529 26.5832 46.0559 26.5832 45.4741V32.4098C26.2408 32.2332 25.9607 31.9823 25.7429 31.657C25.5253 31.3317 25.4165 30.9566 25.4165 30.5318V27.5255C25.4165 26.9438 25.6225 26.4468 26.0345 26.0345C26.4468 25.6225 26.9438 25.4165 27.5255 25.4165H45.4741C46.0559 25.4165 46.5529 25.6225 46.9651 26.0345C47.3772 26.4468 47.5832 26.9438 47.5832 27.5255V30.5318C47.5832 30.9566 47.4744 31.3317 47.2568 31.657C47.039 31.9823 46.7589 32.2332 46.4165 32.4098V45.4741C46.4165 46.0559 46.2105 46.5529 45.7985 46.9651C45.3862 47.3772 44.8892 47.5832 44.3075 47.5832H28.6922ZM28.3332 32.6408V45.4181C28.3332 45.5377 28.3761 45.6368 28.4621 45.7153C28.5482 45.7939 28.6549 45.8332 28.782 45.8332H44.3075C44.4123 45.8332 44.4983 45.7995 44.5656 45.7323C44.6329 45.665 44.6665 45.5789 44.6665 45.4741V32.6408H28.3332ZM27.5255 30.8908H45.4741C45.5789 30.8908 45.665 30.8572 45.7323 30.7899C45.7995 30.7226 45.8332 30.6366 45.8332 30.5318V27.5255C45.8332 27.4207 45.7995 27.3347 45.7323 27.2674C45.665 27.2001 45.5789 27.1665 45.4741 27.1665H27.5255C27.4207 27.1665 27.3347 27.2001 27.2674 27.2674C27.2001 27.3347 27.1665 27.4207 27.1665 27.5255V30.5318C27.1665 30.6366 27.2001 30.7226 27.2674 30.7899C27.3347 30.8572 27.4207 30.8908 27.5255 30.8908ZM33.2241 38.1714H39.7755V36.4998H33.2241V38.1714Z" fill="#5029F3"/>
</svg>
