<svg width="20" height="20" viewBox="0 0 20 20" fill="none" xmlns="http://www.w3.org/2000/svg">
<path d="M19.4007 20L13.7079 14.1481C12.9687 14.8167 12.1066 15.3234 11.1217 15.6681C10.1368 16.0128 9.16365 16.1852 8.20228 16.1852C5.90983 16.1852 3.96968 15.4032 2.38181 13.8394C0.793935 12.2755 0 10.3619 0 8.09863C0 5.83535 0.790727 3.91975 2.37218 2.35185C3.95366 0.783951 5.88591 0 8.16894 0C10.452 0 12.3953 0.782531 13.999 2.34759C15.6027 3.91263 16.4046 5.82501 16.4046 8.08474C16.4046 9.08998 16.2173 10.0802 15.8428 11.0556C15.4682 12.0309 14.9564 12.8642 14.3072 13.5556L20 19.3704L19.4007 20ZM8.20228 15.3704C10.2768 15.3704 12.0251 14.6728 13.4473 13.2778C14.8695 11.8827 15.5806 10.1543 15.5806 8.09259C15.5806 6.03086 14.8695 4.30247 13.4473 2.90741C12.0251 1.51235 10.2768 0.814815 8.20228 0.814815C6.12779 0.814815 4.37944 1.51235 2.95724 2.90741C1.53506 4.30247 0.823973 6.03086 0.823973 8.09259C0.823973 10.1543 1.53506 11.8827 2.95724 13.2778C4.37944 14.6728 6.12779 15.3704 8.20228 15.3704Z" fill="black"/>
</svg>
