<svg width="133" height="32" viewBox="0 0 133 32" fill="none" xmlns="http://www.w3.org/2000/svg">
<path d="M103.365 6.87891C104.516 6.87896 105.521 7.11295 106.379 7.58105C107.257 8.04927 107.93 8.66396 108.398 9.4248V7.11328H113.402V23.4131C113.402 24.9152 113.1 26.271 112.495 27.4805C111.91 28.7095 111.002 29.6854 109.773 30.4072C108.564 31.1289 107.051 31.4893 105.237 31.4893C102.818 31.4892 100.858 30.9137 99.3555 29.7627C97.8536 28.6312 96.9949 27.0903 96.7803 25.1396H101.727C101.883 25.7637 102.253 26.2515 102.838 26.6025C103.423 26.9732 104.146 27.1582 105.004 27.1582C106.038 27.1581 106.857 26.8557 107.462 26.251C108.086 25.6657 108.398 24.7199 108.398 23.4131V21.1006C107.911 21.8614 107.237 22.4859 106.379 22.9736C105.521 23.4418 104.516 23.6757 103.365 23.6758C102.019 23.6758 100.799 23.3351 99.707 22.6523C98.6145 21.95 97.7463 20.9644 97.1025 19.6963C96.4783 18.4087 96.166 16.9258 96.166 15.248C96.166 13.5704 96.4783 12.0971 97.1025 10.8291C97.7463 9.5612 98.6146 8.58607 99.707 7.90332C100.8 7.22051 102.019 6.87891 103.365 6.87891ZM124.514 6.87891C126.113 6.87891 127.557 7.22055 128.845 7.90332C130.132 8.5861 131.147 9.57089 131.889 10.8584C132.63 12.1264 133 13.5997 133 15.2773C133 16.955 132.62 18.438 131.859 19.7256C131.118 20.9937 130.093 21.9695 128.786 22.6523C127.499 23.335 126.055 23.6758 124.455 23.6758C122.855 23.6757 121.412 23.3351 120.124 22.6523C118.856 21.9695 117.852 20.9936 117.11 19.7256C116.389 18.4575 116.027 16.9746 116.027 15.2773C116.027 13.5997 116.398 12.1264 117.14 10.8584C117.881 9.57108 118.895 8.58607 120.183 7.90332C121.47 7.22055 122.914 6.87895 124.514 6.87891ZM124.514 11.21C123.538 11.21 122.729 11.5614 122.085 12.2637C121.441 12.9464 121.119 13.951 121.119 15.2773C121.119 16.5844 121.431 17.5897 122.056 18.292C122.699 18.9942 123.499 19.3446 124.455 19.3447C125.411 19.3447 126.221 18.9943 126.885 18.292C127.568 17.5897 127.908 16.5844 127.908 15.2773C127.908 13.9704 127.576 12.966 126.913 12.2637C126.269 11.5614 125.47 11.21 124.514 11.21ZM104.828 11.2393C103.833 11.2393 102.985 11.6004 102.282 12.3223C101.6 13.0245 101.258 13.9997 101.258 15.248C101.258 16.4966 101.599 17.4921 102.282 18.2334C102.985 18.9551 103.833 19.3164 104.828 19.3164C105.823 19.3164 106.662 18.9551 107.345 18.2334C108.047 17.5116 108.398 16.5259 108.398 15.2773C108.398 14.029 108.047 13.044 107.345 12.3223C106.662 11.6005 105.823 11.2393 104.828 11.2393Z" fill="#9317CF"/>
<path d="M84.9102 23.4404H79.9062V21.0996C79.4381 21.8799 78.7654 22.5045 77.8877 22.9727C77.0293 23.4409 76.0241 23.6748 74.873 23.6748C73.5269 23.6748 72.3073 23.3332 71.2148 22.6504C70.1225 21.9481 69.2541 20.9632 68.6104 19.6953C67.9861 18.4077 67.6738 16.9248 67.6738 15.2471C67.6738 13.5693 67.9861 12.0962 68.6104 10.8281C69.2541 9.5602 70.1225 8.58514 71.2148 7.90234C72.3073 7.21953 73.5269 6.87793 74.873 6.87793C75.946 6.87793 76.9219 7.10208 77.7998 7.55078C78.6971 7.99947 79.3991 8.60447 79.9062 9.36523V1.78613H84.9102V23.4404ZM38.1758 6.87695C39.7559 6.87699 41.1607 7.2088 42.3896 7.87207C43.6184 8.5353 44.5741 9.48119 45.2568 10.71C45.9591 11.939 46.3105 13.3731 46.3105 15.0117C46.3105 15.4799 46.2812 15.9684 46.2227 16.4756H34.8984C34.9765 17.4897 35.2977 18.2703 35.8633 18.8164C36.4486 19.3431 37.1611 19.6064 38 19.6064C39.2485 19.6064 40.1168 19.0797 40.6045 18.0264H45.9307C45.6575 19.0993 45.1593 20.0645 44.4375 20.9229C43.7353 21.7811 42.8482 22.4547 41.7754 22.9424C40.7025 23.4301 39.5023 23.6738 38.1758 23.6738C36.5761 23.6738 35.1519 23.3322 33.9033 22.6494C32.6548 21.9666 31.6789 20.9916 30.9766 19.7236C30.2743 18.4556 29.9229 16.9726 29.9229 15.2754C29.9229 13.5781 30.2645 12.0952 30.9473 10.8271C31.6496 9.55908 32.6255 8.58418 33.874 7.90137C35.1226 7.21855 36.5565 6.87695 38.1758 6.87695ZM15.8896 6.90625H10.4473V23.4404H5.44336V6.90625H0V2.89746H15.8896V6.90625ZM28.5264 12.2324H27.1514C25.9029 12.2324 24.9661 12.5056 24.3418 13.0518C23.7175 13.5785 23.4053 14.5152 23.4053 15.8613V23.4404H18.4014V7.11133H23.4053V9.83301C23.9905 8.9356 24.7227 8.23282 25.6006 7.72559C26.4783 7.19908 27.4536 6.93556 28.5264 6.93555V12.2324ZM58.9004 6.93555C60.8123 6.93555 62.3343 7.56002 63.4658 8.80859C64.6168 10.0376 65.1923 11.735 65.1924 13.9004V23.4404H60.2168V14.5732C60.2167 13.481 59.9338 12.632 59.3682 12.0273C58.8024 11.4229 58.0416 11.1201 57.0859 11.1201C56.1302 11.1202 55.3694 11.4228 54.8037 12.0273C54.238 12.632 53.9552 13.481 53.9551 14.5732V23.4404H48.9512V7.11133H53.9551V9.27734C54.4622 8.55565 55.1448 7.98975 56.0029 7.58008C56.8613 7.15089 57.8274 6.93555 58.9004 6.93555ZM93.5352 23.4404H88.5303V7.11133H93.5352V23.4404ZM76.3359 11.2383C75.3411 11.2384 74.4923 11.5986 73.79 12.3203C73.1072 13.0226 72.7656 13.9985 72.7656 15.2471C72.7656 16.4954 73.1075 17.4902 73.79 18.2314C74.4923 18.9532 75.3411 19.3144 76.3359 19.3145C77.3309 19.3145 78.1697 18.9533 78.8525 18.2314C79.5548 17.5096 79.9062 16.5249 79.9062 15.2764C79.9062 14.0278 79.5549 13.0421 78.8525 12.3203C78.1698 11.5987 77.3307 11.2383 76.3359 11.2383ZM38.1172 10.8857C37.2783 10.8857 36.5657 11.1295 35.9805 11.6172C35.4148 12.1049 35.0643 12.7979 34.9277 13.6953H41.1895C41.1895 12.8369 40.8968 12.1537 40.3115 11.6465C39.7263 11.1394 38.9949 10.8858 38.1172 10.8857ZM91.0479 0C91.906 9.64143e-05 92.6082 0.263465 93.1543 0.790039C93.7201 1.29727 94.0029 1.94132 94.0029 2.72168C94.0029 3.48249 93.72 4.1266 93.1543 4.65332C92.6082 5.16033 91.9059 5.41397 91.0479 5.41406C90.17 5.41406 89.4476 5.16047 88.8818 4.65332C88.3356 4.1266 88.0625 3.48249 88.0625 2.72168C88.0625 1.94132 88.3356 1.29727 88.8818 0.790039C89.4476 0.263331 90.17 0 91.0479 0Z" fill="white"/>
</svg>
